# xmcd CD database file
#
# Track frame offsets:
#	150
#	17342
#	34905
#	50567
#	67887
#	81387
#	96540
#	113715
#	127512
#	143260
#
# Disc length: 2099 seconds
#
# Revision: 4
# Processed by: cddbd v1.5.2PL0 Copyright (c) Steve Scherf et al.
# Submitted via: CDex 2.06
#
DISCID=7608310a
DTITLE=Various Artist - Greatest Hits Of The Country - 1990
DYEAR=1990
DGENRE=Country
TTITLE0=Hummingbird-Ricky Skaggs
TTITLE1=Things are tough all over-Shelby Lynne
TTITLE2=Ain't Necessarily So-Willie Nelson
TTITLE3=Home-Joe Dittie
TTITLE4=Fourteen Minutes Old-Doug Stone
TTITLE5=Next To You, Next To Me-Shenandoah
TTITLE6=You Win Again-Mary-Chapin Carpenter
TTITLE7=I Meant Every Word He Said-Ricky Van Shelton
TTITLE8=My Past Is Present-Rodney Crowell
TTITLE9=That Just About Does It-Virn Gosdin
EXTD=YEAR: 1990
EXTT0=
EXTT1=
EXTT2=
EXTT3=
EXTT4=
EXTT5=
EXTT6=
EXTT7=
EXTT8=
EXTT9=
PLAYORDER=
